<svg width="59" height="38" viewBox="0 0 59 38" fill="none" xmlns="http://www.w3.org/2000/svg">
<circle cx="28.5" cy="7.5" r="7.5" fill="#9599FF"/>
<rect x="21" y="26" width="15" height="9" fill="#9599FF"/>
<ellipse cx="28.5" cy="25.5" rx="7.5" ry="8.5" fill="#9599FF"/>
<circle cx="29" cy="7" r="1" fill="black"/>
<circle cx="33" cy="7" r="1" fill="black"/>
<ellipse cx="41.4428" cy="23.2475" rx="4" ry="2" transform="rotate(20 41.4428 23.2475)" fill="#9599FF"/>
<ellipse cx="41.4428" cy="23.2475" rx="4" ry="2" transform="rotate(20 41.4428 23.2475)" fill="#9599FF"/>
<ellipse cx="15.4428" cy="26.2475" rx="4" ry="2" transform="rotate(-20 15.4428 26.2475)" fill="#9599FF"/>
<ellipse cx="15.4428" cy="26.2475" rx="4" ry="2" transform="rotate(-20 15.4428 26.2475)" fill="#9599FF"/>
<ellipse cx="28.5" cy="35" rx="7.5" ry="3" fill="#9599FF"/>
<line x1="42.617" y1="27.1786" x2="46.7328" y2="22.2735" stroke="#646AFF"/>
<line x1="43.55" y1="21.1" x2="48.35" y2="24.7" stroke="#646AFF"/>
<path d="M55.0125 10.604L45.6019 22.1123L47.1521 23.0324L56.5889 12.0234L56.9836 10L55.0125 10.604Z" fill="#646AFF" stroke="#646AFF"/>
<path d="M12.5 20L1 26C1 26 9.7546 39.5176 15 35.5C19.8676 31.7717 12.5 20 12.5 20Z" fill="#646AFF" stroke="#646AFF"/>
</svg>
