<svg width="69" height="15" viewBox="0 0 69 15" fill="none" xmlns="http://www.w3.org/2000/svg">
<path d="M8.676 12.336C8.844 12.336 9 12.408 9.144 12.552C9.288 12.696 9.36 12.856 9.36 13.032C9.36 13.264 9.224 13.484 8.952 13.692C8.688 13.908 8.36 14.08 7.968 14.208C7.584 14.336 7.24 14.4 6.936 14.4C6.424 14.4 6.016 14.348 5.712 14.244C5.416 14.148 5.116 14.012 4.812 13.836C4.612 13.716 4.448 13.628 4.32 13.572C4.192 13.524 4.04 13.5 3.864 13.5C3.768 13.5 3.688 13.512 3.624 13.536C3.56 13.56 3.476 13.596 3.372 13.644C3.268 13.7 3.172 13.74 3.084 13.764C2.996 13.796 2.884 13.812 2.748 13.812C2.556 13.812 2.388 13.736 2.244 13.584C2.108 13.44 2.04 13.276 2.04 13.092C2.04 12.78 2.18 12.572 2.46 12.468L3.648 12.024C3.024 11.888 2.472 11.62 1.992 11.22C1.512 10.812 1.14 10.312 0.876 9.72C0.612 9.128 0.48 8.488 0.48 7.8C0.48 7.008 0.652 6.284 0.996 5.628C1.348 4.964 1.832 4.44 2.448 4.056C3.072 3.672 3.772 3.48 4.548 3.48C5.324 3.48 6.02 3.672 6.636 4.056C7.26 4.44 7.748 4.964 8.1 5.628C8.452 6.284 8.628 7.008 8.628 7.8C8.628 8.488 8.492 9.128 8.22 9.72C7.956 10.312 7.58 10.812 7.092 11.22C6.612 11.62 6.06 11.888 5.436 12.024L4.704 12.3C4.888 12.324 5.056 12.368 5.208 12.432C5.368 12.496 5.548 12.584 5.748 12.696C5.996 12.832 6.212 12.932 6.396 12.996C6.58 13.06 6.788 13.092 7.02 13.092C7.22 13.092 7.392 13.06 7.536 12.996C7.68 12.94 7.82 12.856 7.956 12.744C8.004 12.704 8.076 12.644 8.172 12.564C8.268 12.492 8.356 12.436 8.436 12.396C8.516 12.356 8.596 12.336 8.676 12.336ZM2.04 7.8C2.04 8.336 2.144 8.824 2.352 9.264C2.568 9.704 2.864 10.052 3.24 10.308C3.624 10.556 4.06 10.68 4.548 10.68C5.028 10.68 5.46 10.552 5.844 10.296C6.228 10.04 6.528 9.696 6.744 9.264C6.96 8.824 7.068 8.336 7.068 7.8C7.068 7.264 6.96 6.78 6.744 6.348C6.528 5.908 6.228 5.56 5.844 5.304C5.46 5.048 5.028 4.92 4.548 4.92C4.06 4.92 3.624 5.048 3.24 5.304C2.864 5.552 2.568 5.896 2.352 6.336C2.144 6.776 2.04 7.264 2.04 7.8ZM15.9226 3.588C16.1306 3.588 16.2986 3.656 16.4266 3.792C16.5546 3.928 16.6186 4.104 16.6186 4.32V8.664C16.6186 9.328 16.4786 9.916 16.1986 10.428C15.9186 10.94 15.5266 11.34 15.0226 11.628C14.5186 11.916 13.9426 12.06 13.2946 12.06C12.6466 12.06 12.0666 11.916 11.5546 11.628C11.0506 11.34 10.6586 10.94 10.3786 10.428C10.0986 9.916 9.95859 9.328 9.95859 8.664V4.32C9.95859 4.112 10.0306 3.94 10.1746 3.804C10.3186 3.66 10.5026 3.588 10.7266 3.588C10.9186 3.588 11.0866 3.66 11.2306 3.804C11.3746 3.94 11.4466 4.112 11.4466 4.32V8.664C11.4466 9.048 11.5306 9.392 11.6986 9.696C11.8666 9.992 12.0906 10.22 12.3706 10.38C12.6586 10.54 12.9666 10.62 13.2946 10.62C13.6386 10.62 13.9586 10.54 14.2546 10.38C14.5586 10.22 14.7986 9.992 14.9746 9.696C15.1586 9.392 15.2506 9.048 15.2506 8.664V4.32C15.2506 4.104 15.3106 3.928 15.4306 3.792C15.5506 3.656 15.7146 3.588 15.9226 3.588ZM23.1715 10.62C23.3795 10.62 23.5515 10.692 23.6875 10.836C23.8315 10.972 23.9035 11.132 23.9035 11.316C23.9035 11.516 23.8315 11.68 23.6875 11.808C23.5515 11.936 23.3795 12 23.1715 12H19.1515C18.9435 12 18.7675 11.932 18.6235 11.796C18.4875 11.652 18.4195 11.476 18.4195 11.268V4.332C18.4195 4.124 18.4875 3.952 18.6235 3.816C18.7675 3.672 18.9435 3.6 19.1515 3.6H23.1715C23.3795 3.6 23.5515 3.668 23.6875 3.804C23.8315 3.932 23.9035 4.1 23.9035 4.308C23.9035 4.508 23.8355 4.672 23.6995 4.8C23.5635 4.92 23.3875 4.98 23.1715 4.98H19.9195V7.02H22.6315C22.8395 7.02 23.0115 7.088 23.1475 7.224C23.2915 7.352 23.3635 7.52 23.3635 7.728C23.3635 7.928 23.2955 8.092 23.1595 8.22C23.0235 8.34 22.8475 8.4 22.6315 8.4H19.9195V10.62H23.1715ZM27.9867 12.12C27.4107 12.12 26.8987 12.048 26.4507 11.904C26.0027 11.76 25.5827 11.516 25.1907 11.172C24.9747 10.98 24.8667 10.768 24.8667 10.536C24.8667 10.352 24.9347 10.192 25.0707 10.056C25.2067 9.912 25.3707 9.84 25.5627 9.84C25.7147 9.84 25.8507 9.888 25.9707 9.984C26.2907 10.248 26.6027 10.44 26.9067 10.56C27.2107 10.68 27.5707 10.74 27.9867 10.74C28.4347 10.74 28.8187 10.64 29.1387 10.44C29.4667 10.24 29.6307 9.992 29.6307 9.696C29.6307 9.336 29.4707 9.056 29.1507 8.856C28.8307 8.648 28.3227 8.492 27.6267 8.388C25.8747 8.132 24.9987 7.316 24.9987 5.94C24.9987 5.436 25.1307 5 25.3947 4.632C25.6587 4.256 26.0187 3.972 26.4747 3.78C26.9307 3.58 27.4387 3.48 27.9987 3.48C28.5027 3.48 28.9747 3.556 29.4147 3.708C29.8627 3.86 30.2347 4.06 30.5307 4.308C30.7627 4.492 30.8787 4.704 30.8787 4.944C30.8787 5.128 30.8107 5.292 30.6747 5.436C30.5387 5.572 30.3787 5.64 30.1947 5.64C30.0747 5.64 29.9667 5.604 29.8707 5.532C29.6627 5.364 29.3707 5.212 28.9947 5.076C28.6267 4.932 28.2947 4.86 27.9987 4.86C27.4947 4.86 27.1027 4.956 26.8227 5.148C26.5507 5.332 26.4147 5.576 26.4147 5.88C26.4147 6.224 26.5547 6.484 26.8347 6.66C27.1227 6.836 27.5707 6.98 28.1787 7.092C28.8667 7.212 29.4147 7.368 29.8227 7.56C30.2387 7.744 30.5507 8 30.7587 8.328C30.9667 8.648 31.0707 9.076 31.0707 9.612C31.0707 10.116 30.9267 10.56 30.6387 10.944C30.3587 11.32 29.9827 11.612 29.5107 11.82C29.0387 12.02 28.5307 12.12 27.9867 12.12ZM50.2647 7.8C50.2647 8.592 50.0887 9.32 49.7367 9.984C49.3847 10.64 48.8967 11.16 48.2727 11.544C47.6567 11.928 46.9607 12.12 46.1847 12.12C45.4087 12.12 44.7087 11.928 44.0847 11.544C43.4687 11.16 42.9847 10.64 42.6327 9.984C42.2887 9.32 42.1167 8.592 42.1167 7.8C42.1167 7.008 42.2887 6.284 42.6327 5.628C42.9847 4.964 43.4687 4.44 44.0847 4.056C44.7087 3.672 45.4087 3.48 46.1847 3.48C46.9607 3.48 47.6567 3.672 48.2727 4.056C48.8967 4.44 49.3847 4.964 49.7367 5.628C50.0887 6.284 50.2647 7.008 50.2647 7.8ZM48.7047 7.8C48.7047 7.264 48.5967 6.78 48.3807 6.348C48.1647 5.908 47.8647 5.56 47.4807 5.304C47.0967 5.048 46.6647 4.92 46.1847 4.92C45.6967 4.92 45.2607 5.048 44.8767 5.304C44.5007 5.552 44.2047 5.896 43.9887 6.336C43.7807 6.776 43.6767 7.264 43.6767 7.8C43.6767 8.336 43.7807 8.824 43.9887 9.264C44.2047 9.704 44.5007 10.052 44.8767 10.308C45.2607 10.556 45.6967 10.68 46.1847 10.68C46.6647 10.68 47.0967 10.552 47.4807 10.296C47.8647 10.04 48.1647 9.696 48.3807 9.264C48.5967 8.824 48.7047 8.336 48.7047 7.8ZM55.2422 3.6C55.9942 3.6 56.6382 3.788 57.1742 4.164C57.7182 4.532 58.1302 5.036 58.4102 5.676C58.6982 6.308 58.8422 7.016 58.8422 7.8C58.8422 8.584 58.6982 9.296 58.4102 9.936C58.1302 10.568 57.7182 11.072 57.1742 11.448C56.6382 11.816 55.9942 12 55.2422 12H52.3742C52.1662 12 51.9902 11.932 51.8462 11.796C51.7102 11.652 51.6422 11.476 51.6422 11.268V4.332C51.6422 4.124 51.7102 3.952 51.8462 3.816C51.9902 3.672 52.1662 3.6 52.3742 3.6H55.2422ZM55.1222 10.62C55.8422 10.62 56.3822 10.356 56.7422 9.828C57.1022 9.292 57.2822 8.616 57.2822 7.8C57.2822 6.984 57.0982 6.312 56.7302 5.784C56.3702 5.248 55.8342 4.98 55.1222 4.98H53.1422V10.62H55.1222ZM67.9483 7.8C67.9483 8.592 67.7723 9.32 67.4203 9.984C67.0683 10.64 66.5803 11.16 65.9563 11.544C65.3403 11.928 64.6443 12.12 63.8683 12.12C63.0923 12.12 62.3923 11.928 61.7683 11.544C61.1523 11.16 60.6683 10.64 60.3163 9.984C59.9723 9.32 59.8003 8.592 59.8003 7.8C59.8003 7.008 59.9723 6.284 60.3163 5.628C60.6683 4.964 61.1523 4.44 61.7683 4.056C62.3923 3.672 63.0923 3.48 63.8683 3.48C64.6443 3.48 65.3403 3.672 65.9563 4.056C66.5803 4.44 67.0683 4.964 67.4203 5.628C67.7723 6.284 67.9483 7.008 67.9483 7.8ZM66.3883 7.8C66.3883 7.264 66.2803 6.78 66.0643 6.348C65.8483 5.908 65.5483 5.56 65.1643 5.304C64.7803 5.048 64.3483 4.92 63.8683 4.92C63.3803 4.92 62.9443 5.048 62.5603 5.304C62.1843 5.552 61.8883 5.896 61.6723 6.336C61.4643 6.776 61.3603 7.264 61.3603 7.8C61.3603 8.336 61.4643 8.824 61.6723 9.264C61.8883 9.704 62.1843 10.052 62.5603 10.308C62.9443 10.556 63.3803 10.68 63.8683 10.68C64.3483 10.68 64.7803 10.552 65.1643 10.296C65.5483 10.04 65.8483 9.696 66.0643 9.264C66.2803 8.824 66.3883 8.336 66.3883 7.8Z" fill="#646AFF"/>
<line x1="37.25" y1="11.25" x2="37.25" y2="1.75" stroke="#9599FF" stroke-width="1.5" stroke-linecap="round"/>
<line x1="28.75" y1="1.25" x2="45.25" y2="1.25" stroke="#9599FF" stroke-width="1.5" stroke-linecap="round"/>
</svg>
